<svg width="168" height="70" viewBox="0 0 168 70" fill="none" xmlns="http://www.w3.org/2000/svg">
<path d="M162.569 5.02561V14.359H165.887V18.8718H162.569V27.282C162.569 28.1026 162.776 28.7179 163.191 29.1282C163.606 29.5384 164.228 29.7436 165.058 29.7436C165.472 29.7436 167.442 29.7436 167.442 29.7436V35.0769C167.442 35.0769 163.813 35.0769 163.295 35.0769C161.636 35.0769 159.563 34.7692 158.111 33.4359C156.659 32.1025 156.038 30.359 156.038 27.8974V18.7692H153.031V14.2564H156.038V5.02561H162.569ZM143.181 35.4872C140.175 35.4872 137.582 34.4616 135.82 32.6154C133.954 30.7692 133.124 28.3077 133.124 25.4359V24.718C133.124 21.5384 133.954 18.9743 135.612 16.9231C137.271 14.9744 139.656 13.9487 142.766 13.9487C145.566 13.9487 147.847 14.7692 149.402 16.4103C151.061 18.1538 151.786 20.4103 151.786 23.2821V26.6666H139.864V26.7692C139.967 27.8974 140.486 28.6154 141.212 29.3333C141.937 30.0513 142.974 30.359 144.114 30.359C145.359 30.359 146.291 30.2564 147.017 30.0513C147.743 29.8461 148.78 29.5385 149.817 29.0257L151.372 33.0256C150.438 33.7436 149.298 34.2564 147.847 34.7692C146.396 35.2821 144.737 35.4872 143.181 35.4872ZM142.663 18.8718C141.73 18.8718 141.004 19.1795 140.589 19.8974C140.175 20.6154 139.864 21.5384 139.759 22.5641L139.864 22.6667H145.462V22.1538C145.462 21.0256 145.254 20.3077 144.84 19.7949C144.218 19.077 143.596 18.8718 142.663 18.8718ZM121.305 35.4872C118.298 35.4872 115.706 34.4616 113.944 32.6154C112.181 30.7692 111.248 28.3077 111.248 25.4359V24.718C111.248 21.5384 112.077 18.9743 113.736 16.9231C115.395 14.9744 117.78 13.9487 120.89 13.9487C123.69 13.9487 125.97 14.7692 127.526 16.4103C129.081 18.0512 129.91 20.4103 129.91 23.2821V26.6666H117.987V26.7692C118.091 27.8974 118.609 28.6154 119.335 29.3333C120.06 30.0513 121.097 30.359 122.238 30.359C123.482 30.359 124.415 30.2564 125.141 30.0513C125.867 29.8461 126.903 29.5385 127.94 29.0257L129.496 33.0256C128.562 33.7436 127.422 34.2564 125.97 34.7692C124.623 35.2821 122.964 35.4872 121.305 35.4872ZM120.89 18.8718C119.957 18.8718 119.231 19.1795 118.817 19.8974C118.402 20.6154 118.091 21.5384 117.987 22.5641L118.091 22.6667H123.69V22.1538C123.69 21.0256 123.482 20.3077 123.067 19.7949C122.445 19.077 121.823 18.8718 120.89 18.8718ZM101.502 26.2564L103.783 14.1539H109.692L104.923 34.9743H99.4285L96.0074 23.8975H95.9033L92.4822 34.9743H86.9873L82.1142 14.2564H88.1276L90.4083 26.4615H90.5117L93.8301 14.2564H97.9772L101.502 26.2564ZM74.0269 29.1282C74.0269 28.6153 73.7159 28.1026 73.0941 27.6923C72.4722 27.282 71.4352 26.8718 69.8798 26.5641C67.4953 26.0513 65.629 25.3334 64.3849 24.4102C63.1407 23.3847 62.5186 22.0513 62.5186 20.3077C62.5186 18.4616 63.3481 16.9231 64.7996 15.5898C66.3548 14.2564 68.4285 13.7436 71.0202 13.7436C73.7159 13.7436 75.9966 14.359 77.5521 15.5898C79.2109 16.8205 79.9369 18.359 79.8328 20.4102V20.5128H73.6125C73.6125 19.6923 73.405 19.0769 72.9899 18.6667C72.5756 18.2564 71.8496 18.0512 71.0202 18.0512C70.2949 18.0512 69.7764 18.2564 69.2579 18.6667C68.7395 19.0769 68.5319 19.4872 68.5319 20.1025C68.5319 20.718 68.8429 21.1282 69.3613 21.5384C69.8798 21.9487 71.0202 22.2564 72.5756 22.5641C75.0638 23.0769 77.0336 23.7949 78.1739 24.718C79.4184 25.7436 80.0403 27.0769 80.0403 28.9231C80.0403 30.7692 79.2109 32.3077 77.5521 33.5384C75.8932 34.7692 73.7159 35.3846 71.0202 35.3846C68.221 35.3846 65.9401 34.6667 64.2812 33.2308C62.6223 31.7949 61.8965 30.2564 62.0002 28.4103V28.3077H67.91C67.91 29.3333 68.221 30.0513 68.8429 30.359C69.4655 30.6666 70.2949 31.077 71.2277 31.077C72.1605 31.077 72.7831 30.8718 73.1975 30.5641C73.8193 30.2564 74.0269 29.7436 74.0269 29.1282ZM45.8262 14.1539L46.0336 17.0257C46.7594 16 47.5888 15.1795 48.5219 14.6667C49.5587 14.0513 50.5955 13.7436 51.8397 13.7436C53.8096 13.7436 55.4684 14.4615 56.6089 15.6924C57.7494 16.9231 58.3714 19.0769 58.3714 21.9487V34.9743H52.047V22.0513C52.047 20.8205 51.8397 20.1025 51.3213 19.5897C50.8029 19.0769 50.0771 18.8718 49.144 18.8718C48.5219 18.8718 48.0035 18.9744 47.4851 19.1795C46.9667 19.3846 46.552 19.6923 46.241 20.1025V35.0769H39.8128V14.2564H45.8262V14.1539ZM35.8731 10.2564H29.3412V5.02561H35.8731V10.2564ZM35.8731 35.0769H29.3412V14.2564H35.8731V35.0769ZM15.0335 35.0769V18.6667H12.0268V14.1539H15.0335V12C15.0335 9.64103 15.7593 7.79489 17.1071 6.46157C18.5586 5.12826 20.7359 4.82052 22.2911 4.82052C22.8095 4.82052 26.4382 4.82052 26.4382 4.82052V10.0513C26.4382 10.0513 24.4683 10.0513 24.0536 10.0513C23.2242 10.0513 22.6021 10.2564 22.1874 10.6667C21.7727 11.0769 21.5653 11.6923 21.5653 12.5128V14.0513H25.6088V18.5641H21.5653V34.8717H15.0335V35.0769ZM2.59199 6.76924C2.59199 0.512825 5.9097 0 11.5084 0V4.9231C8.91642 4.9231 7.87961 5.33334 7.87961 6.87182V14.9744C7.87961 16.8205 7.98331 18.7692 6.4281 20C7.98331 21.2308 7.87961 23.0769 7.87961 25.0256V33.1282C7.87961 34.7692 8.91642 35.0769 11.5084 35.0769V40C5.9097 40 2.59199 39.4872 2.59199 33.2308V25.0256C2.59199 23.6923 2.59198 22.2564 0 22.2564V20.1025V17.9487C2.59198 17.9487 2.59199 16.4103 2.59199 15.1795V6.76924Z" fill="url(#paint0_linear_902_43)"/>
<path d="M6.81445 63.4961H7.66992C7.66992 64.1094 7.49414 64.5703 7.14258 64.8789C6.79492 65.1836 6.32227 65.3359 5.72461 65.3359C5.31055 65.3359 4.95117 65.2402 4.64648 65.0488C4.3457 64.8574 4.11133 64.5918 3.94336 64.252C3.7793 63.9121 3.69727 63.5176 3.69727 63.0684V62.3945C3.69727 61.9453 3.7793 61.5508 3.94336 61.2109C4.11133 60.8711 4.3457 60.6055 4.64648 60.4141C4.95117 60.2227 5.31055 60.127 5.72461 60.127C6.32227 60.127 6.79688 60.2793 7.14844 60.584C7.5 60.8887 7.67578 61.3477 7.67578 61.9609H6.82031C6.82031 61.5742 6.72656 61.2969 6.53906 61.1289C6.35547 60.9609 6.08398 60.877 5.72461 60.877C5.4668 60.877 5.25 60.9414 5.07422 61.0703C4.89844 61.1992 4.76562 61.3789 4.67578 61.6094C4.58594 61.8359 4.54102 62.0957 4.54102 62.3887V63.0684C4.54102 63.3652 4.58594 63.6289 4.67578 63.8594C4.76562 64.0859 4.89844 64.2637 5.07422 64.3926C5.25 64.5215 5.4668 64.5859 5.72461 64.5859C6.08398 64.5859 6.35547 64.502 6.53906 64.334C6.72266 64.166 6.81445 63.8867 6.81445 63.4961ZM2.32031 62.7285C2.32031 63.248 2.41016 63.7324 2.58984 64.1816C2.76953 64.6309 3.01953 65.0234 3.33984 65.3594C3.66016 65.6953 4.03125 65.957 4.45312 66.1445C4.875 66.332 5.32617 66.4258 5.80664 66.4258C6.28711 66.4258 6.73633 66.332 7.1543 66.1445C7.57617 65.957 7.94531 65.6953 8.26172 65.3594C8.58203 65.0234 8.83203 64.6309 9.01172 64.1816C9.19141 63.7324 9.28125 63.248 9.28125 62.7285C9.28125 62.2051 9.19141 61.7207 9.01172 61.2754C8.83203 60.8301 8.58203 60.4414 8.26172 60.1094C7.94531 59.7734 7.57617 59.5137 7.1543 59.3301C6.73633 59.1426 6.28711 59.0488 5.80664 59.0488C5.32617 59.0488 4.875 59.1426 4.45312 59.3301C4.03125 59.5137 3.66016 59.7734 3.33984 60.1094C3.01953 60.4414 2.76953 60.8301 2.58984 61.2754C2.41016 61.7207 2.32031 62.2051 2.32031 62.7285ZM1.64648 62.7285C1.64648 62.1074 1.75391 61.5312 1.96875 61C2.18359 60.4688 2.48242 60.0059 2.86523 59.6113C3.24805 59.2129 3.68945 58.9043 4.18945 58.6855C4.69336 58.4629 5.23242 58.3516 5.80664 58.3516C6.38086 58.3516 6.91797 58.4629 7.41797 58.6855C7.92188 58.9043 8.36328 59.2129 8.74219 59.6113C9.125 60.0059 9.42383 60.4688 9.63867 61C9.85352 61.5312 9.96094 62.1074 9.96094 62.7285C9.96094 63.3496 9.85352 63.9258 9.63867 64.457C9.42383 64.9883 9.125 65.4551 8.74219 65.8574C8.36328 66.2559 7.92188 66.5664 7.41797 66.7891C6.91797 67.0117 6.38086 67.123 5.80664 67.123C5.23242 67.123 4.69336 67.0117 4.18945 66.7891C3.68945 66.5664 3.24805 66.2559 2.86523 65.8574C2.48242 65.4551 2.18359 64.9883 1.96875 64.457C1.75391 63.9258 1.64648 63.3496 1.64648 62.7285ZM18.4863 64.2871H19.5645C19.5371 64.873 19.418 65.3789 19.207 65.8047C19 66.2266 18.6973 66.5508 18.2988 66.7773C17.9043 67.0039 17.4102 67.1172 16.8164 67.1172C16.3906 67.1172 16.0059 67.0332 15.6621 66.8652C15.3184 66.6973 15.0234 66.457 14.7773 66.1445C14.5352 65.8281 14.3496 65.4492 14.2207 65.0078C14.0918 64.5664 14.0273 64.0703 14.0273 63.5195V61.9434C14.0273 61.3965 14.0918 60.9023 14.2207 60.4609C14.3535 60.0195 14.543 59.6426 14.7891 59.3301C15.0391 59.0137 15.3418 58.7715 15.6973 58.6035C16.0566 58.4355 16.4629 58.3516 16.916 58.3516C17.4707 58.3516 17.9395 58.4629 18.3223 58.6855C18.709 58.9043 19.0059 59.2266 19.2129 59.6523C19.4238 60.0742 19.541 60.5918 19.5645 61.2051H18.4863C18.459 60.7559 18.3887 60.3906 18.2754 60.1094C18.1621 59.8242 17.9941 59.6152 17.7715 59.4824C17.5527 59.3457 17.2676 59.2773 16.916 59.2773C16.6035 59.2773 16.332 59.3398 16.1016 59.4648C15.875 59.5898 15.6875 59.7695 15.5391 60.0039C15.3945 60.2344 15.2852 60.5137 15.2109 60.8418C15.1406 61.166 15.1055 61.5293 15.1055 61.9316V63.5195C15.1055 63.8945 15.1348 64.2441 15.1934 64.5684C15.2559 64.8926 15.3535 65.1777 15.4863 65.4238C15.623 65.666 15.8008 65.8555 16.0195 65.9922C16.2383 66.1289 16.5039 66.1973 16.8164 66.1973C17.2109 66.1973 17.5234 66.1328 17.7539 66.0039C17.9844 65.875 18.1543 65.6699 18.2637 65.3887C18.377 65.1074 18.4512 64.7402 18.4863 64.2871ZM26.5723 61.9961V63.4785C26.5723 64.0801 26.5059 64.6094 26.373 65.0664C26.2441 65.5195 26.0547 65.8984 25.8047 66.2031C25.5547 66.5078 25.2539 66.7363 24.9023 66.8887C24.5508 67.041 24.1543 67.1172 23.7129 67.1172C23.2871 67.1172 22.8984 67.041 22.5469 66.8887C22.1953 66.7363 21.8926 66.5078 21.6387 66.2031C21.3848 65.8984 21.1875 65.5195 21.0469 65.0664C20.9102 64.6094 20.8418 64.0801 20.8418 63.4785V61.9961C20.8418 61.3945 20.9102 60.8672 21.0469 60.4141C21.1836 59.957 21.3789 59.5762 21.6328 59.2715C21.8867 58.9668 22.1895 58.7383 22.541 58.5859C22.8926 58.4297 23.2812 58.3516 23.707 58.3516C24.1484 58.3516 24.5449 58.4297 24.8965 58.5859C25.252 58.7383 25.5527 58.9668 25.7988 59.2715C26.0488 59.5762 26.2402 59.957 26.373 60.4141C26.5059 60.8672 26.5723 61.3945 26.5723 61.9961ZM25.5059 63.4785V61.9844C25.5059 61.5156 25.4668 61.1133 25.3887 60.7773C25.3105 60.4375 25.1953 60.1602 25.043 59.9453C24.8906 59.7305 24.7031 59.5723 24.4805 59.4707C24.2578 59.3652 24 59.3125 23.707 59.3125C23.4297 59.3125 23.1797 59.3652 22.957 59.4707C22.7383 59.5723 22.5508 59.7305 22.3945 59.9453C22.2383 60.1602 22.1172 60.4375 22.0312 60.7773C21.9492 61.1133 21.9082 61.5156 21.9082 61.9844V63.4785C21.9082 63.9512 21.9492 64.3574 22.0312 64.6973C22.1172 65.0332 22.2383 65.3105 22.3945 65.5293C22.5547 65.7441 22.7461 65.9043 22.9688 66.0098C23.1914 66.1113 23.4395 66.1621 23.7129 66.1621C24.0059 66.1621 24.2637 66.1113 24.4863 66.0098C24.7129 65.9043 24.9004 65.7441 25.0488 65.5293C25.2012 65.3105 25.3145 65.0332 25.3887 64.6973C25.4668 64.3574 25.5059 63.9512 25.5059 63.4785ZM30.9609 63.6543H29.0977V62.7344H30.9609C31.3125 62.7344 31.5957 62.6641 31.8105 62.5234C32.0293 62.3828 32.1875 62.1875 32.2852 61.9375C32.3867 61.6875 32.4375 61.4023 32.4375 61.082C32.4375 60.7891 32.3867 60.5137 32.2852 60.2559C32.1875 59.998 32.0293 59.791 31.8105 59.6348C31.5957 59.4746 31.3125 59.3945 30.9609 59.3945H29.3203V67H28.2422V58.4688H30.9609C31.5117 58.4688 31.9766 58.5801 32.3555 58.8027C32.7344 59.0254 33.0215 59.334 33.2168 59.7285C33.416 60.1191 33.5156 60.5664 33.5156 61.0703C33.5156 61.6172 33.416 62.084 33.2168 62.4707C33.0215 62.8574 32.7344 63.1523 32.3555 63.3555C31.9766 63.5547 31.5117 63.6543 30.9609 63.6543ZM35.3789 58.4688L37.1191 62.752L38.8652 58.4688H40.084L37.6582 63.8125V67H36.5801V63.8125L34.1543 58.4688H35.3789ZM41.209 58.4688H43.5938C44.1484 58.4688 44.6133 58.5664 44.9883 58.7617C45.3672 58.957 45.6523 59.2461 45.8438 59.6289C46.0391 60.0078 46.1367 60.4746 46.1367 61.0293C46.1367 61.4199 46.0723 61.7773 45.9434 62.1016C45.8145 62.4219 45.627 62.6953 45.3809 62.9219C45.1348 63.1445 44.8359 63.3105 44.4844 63.4199L44.1914 63.543H42.0645L42.0527 62.623H43.582C43.9102 62.623 44.1836 62.5527 44.4023 62.4121C44.6211 62.2676 44.7852 62.0742 44.8945 61.832C45.0039 61.5898 45.0586 61.3223 45.0586 61.0293C45.0586 60.7012 45.0098 60.4141 44.9121 60.168C44.8145 59.9219 44.6582 59.7324 44.4434 59.5996C44.2324 59.4629 43.9492 59.3945 43.5938 59.3945H42.2871V67H41.209V58.4688ZM45.3047 67L43.6055 63.1328L44.7246 63.127L46.459 66.9297V67H45.3047ZM48.7031 58.4688V67H47.625V58.4688H48.7031ZM55.9219 62.752V65.9336C55.8281 66.0586 55.6855 66.2148 55.4941 66.4023C55.3066 66.5898 55.043 66.7559 54.7031 66.9004C54.3633 67.0449 53.918 67.1172 53.3672 67.1172C52.9258 67.1172 52.5215 67.043 52.1543 66.8945C51.791 66.7461 51.4766 66.5234 51.2109 66.2266C50.9492 65.9258 50.7461 65.5527 50.6016 65.1074C50.457 64.6582 50.3848 64.1328 50.3848 63.5312V61.9316C50.3848 61.334 50.4453 60.8105 50.5664 60.3613C50.6875 59.9121 50.8672 59.5391 51.1055 59.2422C51.3477 58.9453 51.6465 58.7227 52.002 58.5742C52.3613 58.4258 52.7793 58.3516 53.2559 58.3516C53.8066 58.3516 54.2754 58.4551 54.6621 58.6621C55.0488 58.8691 55.3477 59.168 55.5586 59.5586C55.7734 59.9492 55.8945 60.418 55.9219 60.9648H54.8438C54.8164 60.6133 54.7422 60.3125 54.6211 60.0625C54.5 59.8086 54.3281 59.6152 54.1055 59.4824C53.8828 59.3457 53.5996 59.2773 53.2559 59.2773C52.9277 59.2773 52.6504 59.332 52.4238 59.4414C52.1973 59.5508 52.0117 59.7148 51.8672 59.9336C51.7266 60.1523 51.623 60.4277 51.5566 60.7598C51.4941 61.0918 51.4629 61.4785 51.4629 61.9199V63.5312C51.4629 63.9844 51.5078 64.3789 51.5977 64.7148C51.6875 65.0508 51.8145 65.3281 51.9785 65.5469C52.1465 65.7656 52.3477 65.9297 52.582 66.0391C52.8164 66.1445 53.0801 66.1973 53.373 66.1973C53.7051 66.1973 53.9668 66.1621 54.1582 66.0918C54.3496 66.0215 54.4961 65.9414 54.5977 65.8516C54.7031 65.7617 54.7871 65.6895 54.8496 65.6348V63.666H53.2852V62.752H55.9219ZM62.2969 62.1367V63.0566H58.5996V62.1367H62.2969ZM58.7461 58.4688V67H57.668V58.4688H58.7461ZM63.252 58.4688V67H62.1738V58.4688H63.252ZM67.6758 58.4688V67H66.6094V58.4688H67.6758ZM69.9199 58.4688V59.3945H64.3711V58.4688H69.9199ZM74.7773 58.4688V67H73.6992V58.4688H74.7773ZM77.6543 62.3066V63.2324H74.5723V62.3066H77.6543ZM78.1406 58.4688V59.3945H74.5723V58.4688H78.1406ZM80.6016 58.4688V67H79.5234V58.4688H80.6016ZM88.0547 58.4688V67H86.9707L83.5547 60.4199V67H82.4766V58.4688H83.5547L86.9883 65.0664V58.4688H88.0547ZM93.6504 64.8438C93.6504 64.6445 93.627 64.4688 93.5801 64.3164C93.5332 64.1602 93.4512 64.0195 93.334 63.8945C93.2168 63.7695 93.0527 63.6504 92.8418 63.5371C92.6309 63.4238 92.3633 63.3086 92.0391 63.1914C91.6875 63.0664 91.3691 62.9277 91.084 62.7754C90.7988 62.6191 90.5547 62.4414 90.3516 62.2422C90.1523 62.043 89.998 61.8145 89.8887 61.5566C89.7793 61.2988 89.7246 61.0039 89.7246 60.6719C89.7246 60.3398 89.7812 60.0332 89.8945 59.752C90.0117 59.4707 90.1758 59.2266 90.3867 59.0195C90.6016 58.8086 90.8594 58.6445 91.1602 58.5273C91.4609 58.4102 91.7969 58.3516 92.168 58.3516C92.7227 58.3516 93.1895 58.4746 93.5684 58.7207C93.9512 58.9629 94.2402 59.2812 94.4355 59.6758C94.6309 60.0664 94.7285 60.4844 94.7285 60.9297H93.6504C93.6504 60.6094 93.5977 60.3262 93.4922 60.0801C93.3906 59.8301 93.2305 59.6348 93.0117 59.4941C92.7969 59.3496 92.5156 59.2773 92.168 59.2773C91.8555 59.2773 91.5977 59.3379 91.3945 59.459C91.1953 59.5801 91.0469 59.7441 90.9492 59.9512C90.8555 60.1582 90.8086 60.3945 90.8086 60.6602C90.8086 60.8398 90.8398 61.0039 90.9023 61.1523C90.9648 61.2969 91.0605 61.4316 91.1895 61.5566C91.3223 61.6816 91.4863 61.7969 91.6816 61.9023C91.8809 62.0078 92.1152 62.1094 92.3848 62.207C92.8027 62.3438 93.1602 62.4961 93.457 62.6641C93.7539 62.832 93.9961 63.0215 94.1836 63.2324C94.3711 63.4395 94.5078 63.6758 94.5938 63.9414C94.6836 64.2031 94.7285 64.5 94.7285 64.832C94.7285 65.1797 94.6699 65.4941 94.5527 65.7754C94.4395 66.0566 94.2734 66.2969 94.0547 66.4961C93.8359 66.6953 93.5723 66.8496 93.2637 66.959C92.9551 67.0645 92.6074 67.1172 92.2207 67.1172C91.8848 67.1172 91.5547 67.0625 91.2305 66.9531C90.9102 66.8438 90.6191 66.6797 90.3574 66.4609C90.0957 66.2422 89.8867 65.9727 89.7305 65.6523C89.5742 65.3281 89.4961 64.9531 89.4961 64.5273H90.5742C90.5742 64.8203 90.6172 65.0723 90.7031 65.2832C90.7891 65.4902 90.9082 65.6621 91.0605 65.7988C91.2129 65.9355 91.3867 66.0371 91.582 66.1035C91.7812 66.166 91.9941 66.1973 92.2207 66.1973C92.5332 66.1973 92.7949 66.1426 93.0059 66.0332C93.2207 65.9238 93.3809 65.7676 93.4863 65.5645C93.5957 65.3613 93.6504 65.1211 93.6504 64.8438ZM98.0566 64.4219L99.4219 58.4688H100.189L99.7852 60.7832L98.3027 67H97.5352L98.0566 64.4219ZM96.709 58.4688L97.7754 64.3047L98.0918 67H97.3359L95.6367 58.4688H96.709ZM101.93 64.2988L102.973 58.4688H104.045L102.352 67H101.596L101.93 64.2988ZM100.312 58.4688L101.637 64.4219L102.146 67H101.379L99.9609 60.7832L99.5566 58.4688H100.312ZM109.869 66.0801V67H106.166V66.0801H109.869ZM106.359 58.4688V67H105.281V58.4688H106.359ZM109.371 62.1367V63.0566H106.166V62.1367H109.371ZM109.811 58.4688V59.3945H106.166V58.4688H109.811ZM115.834 66.0801V67H112.131V66.0801H115.834ZM112.324 58.4688V67H111.246V58.4688H112.324ZM115.336 62.1367V63.0566H112.131V62.1367H115.336ZM115.775 58.4688V59.3945H112.131V58.4688H115.775ZM120.07 58.4688V67H119.004V58.4688H120.07ZM122.314 58.4688V59.3945H116.766V58.4688H122.314ZM130.629 66.1094V67H125.859V66.2207L128.209 63.1094C128.498 62.7266 128.719 62.4023 128.871 62.1367C129.023 61.8672 129.129 61.627 129.188 61.416C129.246 61.2012 129.275 60.9824 129.275 60.7598C129.275 60.4785 129.23 60.2246 129.141 59.998C129.051 59.7676 128.92 59.584 128.748 59.4473C128.576 59.3105 128.369 59.2422 128.127 59.2422C127.811 59.2422 127.551 59.3164 127.348 59.4648C127.148 59.6094 127.002 59.8125 126.908 60.0742C126.814 60.3359 126.768 60.6367 126.768 60.9766H125.73C125.73 60.4961 125.818 60.0566 125.994 59.6582C126.174 59.2598 126.441 58.9434 126.797 58.709C127.152 58.4707 127.596 58.3516 128.127 58.3516C128.584 58.3516 128.975 58.4473 129.299 58.6387C129.627 58.8262 129.877 59.0918 130.049 59.4355C130.225 59.7754 130.312 60.1738 130.312 60.6309C130.312 60.8809 130.277 61.1348 130.207 61.3926C130.141 61.6465 130.047 61.9004 129.926 62.1543C129.809 62.4082 129.67 62.6582 129.51 62.9043C129.35 63.1504 129.178 63.3926 128.994 63.6309L127.102 66.1094H130.629ZM136.348 62.0547V63.3555C136.348 64.0547 136.293 64.6445 136.184 65.125C136.078 65.6055 135.926 65.9922 135.727 66.2852C135.527 66.5781 135.287 66.791 135.006 66.9238C134.729 67.0527 134.416 67.1172 134.068 67.1172C133.795 67.1172 133.539 67.0762 133.301 66.9941C133.066 66.9121 132.855 66.7812 132.668 66.6016C132.48 66.418 132.32 66.1797 132.188 65.8867C132.055 65.5938 131.953 65.2383 131.883 64.8203C131.812 64.4023 131.777 63.9141 131.777 63.3555V62.0547C131.777 61.3555 131.832 60.7695 131.941 60.2969C132.051 59.8242 132.205 59.4453 132.404 59.1602C132.607 58.8711 132.848 58.6641 133.125 58.5391C133.406 58.4141 133.719 58.3516 134.062 58.3516C134.34 58.3516 134.596 58.3926 134.83 58.4746C135.068 58.5527 135.279 58.6797 135.463 58.8555C135.65 59.0273 135.811 59.2578 135.943 59.5469C136.076 59.832 136.176 60.1816 136.242 60.5957C136.312 61.0098 136.348 61.4961 136.348 62.0547ZM135.316 63.5312V61.873C135.316 61.4902 135.299 61.1543 135.264 60.8652C135.229 60.5723 135.178 60.3223 135.111 60.1152C135.045 59.9082 134.959 59.7402 134.854 59.6113C134.752 59.4824 134.635 59.3887 134.502 59.3301C134.369 59.2676 134.223 59.2363 134.062 59.2363C133.863 59.2363 133.686 59.2852 133.529 59.3828C133.377 59.4766 133.246 59.627 133.137 59.834C133.031 60.041 132.951 60.3125 132.896 60.6484C132.842 60.9844 132.814 61.3926 132.814 61.873V63.5312C132.814 63.9141 132.832 64.252 132.867 64.5449C132.906 64.8379 132.959 65.0918 133.025 65.3066C133.096 65.5176 133.182 65.6914 133.283 65.8281C133.385 65.9648 133.502 66.0664 133.635 66.1328C133.768 66.1953 133.912 66.2266 134.068 66.2266C134.275 66.2266 134.455 66.1758 134.607 66.0742C134.764 65.9727 134.895 65.8145 135 65.5996C135.105 65.3809 135.184 65.1016 135.234 64.7617C135.289 64.418 135.316 64.0078 135.316 63.5312ZM142.488 66.1094V67H137.719V66.2207L140.068 63.1094C140.357 62.7266 140.578 62.4023 140.73 62.1367C140.883 61.8672 140.988 61.627 141.047 61.416C141.105 61.2012 141.135 60.9824 141.135 60.7598C141.135 60.4785 141.09 60.2246 141 59.998C140.91 59.7676 140.779 59.584 140.607 59.4473C140.436 59.3105 140.229 59.2422 139.986 59.2422C139.67 59.2422 139.41 59.3164 139.207 59.4648C139.008 59.6094 138.861 59.8125 138.768 60.0742C138.674 60.3359 138.627 60.6367 138.627 60.9766H137.59C137.59 60.4961 137.678 60.0566 137.854 59.6582C138.033 59.2598 138.301 58.9434 138.656 58.709C139.012 58.4707 139.455 58.3516 139.986 58.3516C140.443 58.3516 140.834 58.4473 141.158 58.6387C141.486 58.8262 141.736 59.0918 141.908 59.4355C142.084 59.7754 142.172 60.1738 142.172 60.6309C142.172 60.8809 142.137 61.1348 142.066 61.3926C142 61.6465 141.906 61.9004 141.785 62.1543C141.668 62.4082 141.529 62.6582 141.369 62.9043C141.209 63.1504 141.037 63.3926 140.854 63.6309L138.961 66.1094H142.488ZM148.418 66.1094V67H143.648V66.2207L145.998 63.1094C146.287 62.7266 146.508 62.4023 146.66 62.1367C146.812 61.8672 146.918 61.627 146.977 61.416C147.035 61.2012 147.064 60.9824 147.064 60.7598C147.064 60.4785 147.02 60.2246 146.93 59.998C146.84 59.7676 146.709 59.584 146.537 59.4473C146.365 59.3105 146.158 59.2422 145.916 59.2422C145.6 59.2422 145.34 59.3164 145.137 59.4648C144.938 59.6094 144.791 59.8125 144.697 60.0742C144.604 60.3359 144.557 60.6367 144.557 60.9766H143.52C143.52 60.4961 143.607 60.0566 143.783 59.6582C143.963 59.2598 144.23 58.9434 144.586 58.709C144.941 58.4707 145.385 58.3516 145.916 58.3516C146.373 58.3516 146.764 58.4473 147.088 58.6387C147.416 58.8262 147.666 59.0918 147.838 59.4355C148.014 59.7754 148.102 60.1738 148.102 60.6309C148.102 60.8809 148.066 61.1348 147.996 61.3926C147.93 61.6465 147.836 61.9004 147.715 62.1543C147.598 62.4082 147.459 62.6582 147.299 62.9043C147.139 63.1504 146.967 63.3926 146.783 63.6309L144.891 66.1094H148.418Z" fill="white"/>
<defs>
<linearGradient id="paint0_linear_902_43" x1="-10.4109" y1="-75" x2="71.6188" y2="47.3164" gradientUnits="userSpaceOnUse">
<stop stop-color="#DF9679"/>
<stop offset="1" stop-color="#FFD0A0"/>
</linearGradient>
</defs>
</svg>
